<mxfile host="app.diagrams.net" agent="Mozilla/5.0 (Windows NT 10.0; Win64; x64) AppleWebKit/537.36 (KHTML, like Gecko) Chrome/134.0.0.0 Safari/537.36" version="26.1.3">
  <diagram id="Ht1M8jgEwFfnCIfOTk4-" name="Page-1">
    <mxGraphModel dx="1518" dy="624" grid="1" gridSize="10" guides="1" tooltips="1" connect="1" arrows="1" fold="1" page="1" pageScale="1" pageWidth="1169" pageHeight="827" math="0" shadow="0">
      <root>
        <mxCell id="0" />
        <mxCell id="1" parent="0" />
        <mxCell id="o6eDRJYxuamuJcPeGK1Q-1" value="Users" style="sketch=0;outlineConnect=0;fontColor=#232F3E;gradientColor=none;fillColor=#000000;strokeColor=none;dashed=0;verticalLabelPosition=bottom;verticalAlign=top;align=center;html=1;fontSize=14;fontStyle=0;aspect=fixed;pointerEvents=1;shape=mxgraph.aws4.users;strokeWidth=1;" parent="1" vertex="1">
          <mxGeometry x="80" y="280" width="78" height="78" as="geometry" />
        </mxCell>
        <mxCell id="o6eDRJYxuamuJcPeGK1Q-2" style="edgeStyle=orthogonalEdgeStyle;rounded=0;orthogonalLoop=1;jettySize=auto;html=1;exitX=0.995;exitY=0.475;exitDx=0;exitDy=0;exitPerimeter=0;" parent="1" source="o6eDRJYxuamuJcPeGK1Q-4" target="o6eDRJYxuamuJcPeGK1Q-1" edge="1">
          <mxGeometry relative="1" as="geometry">
            <Array as="points">
              <mxPoint x="120" y="120" />
            </Array>
          </mxGeometry>
        </mxCell>
        <mxCell id="o6eDRJYxuamuJcPeGK1Q-3" style="edgeStyle=orthogonalEdgeStyle;rounded=0;orthogonalLoop=1;jettySize=auto;html=1;exitX=0;exitY=0.5;exitDx=0;exitDy=0;exitPerimeter=0;endArrow=none;startFill=0;" parent="1" source="o6eDRJYxuamuJcPeGK1Q-4" target="cRgJPDMEzFP9TilegyfI-17" edge="1">
          <mxGeometry relative="1" as="geometry" />
        </mxCell>
        <mxCell id="o6eDRJYxuamuJcPeGK1Q-4" value="&lt;font style=&quot;font-size: 12px;&quot;&gt;JWT access token&lt;br&gt;(with custom role attribute)&lt;/font&gt;" style="points=[[0,0.5,0],[0.24,0,0],[0.5,0.28,0],[0.995,0.475,0],[0.5,0.72,0],[0.24,1,0]];verticalLabelPosition=bottom;sketch=0;html=1;verticalAlign=top;aspect=fixed;align=center;pointerEvents=1;shape=mxgraph.cisco19.key;fillColor=#000000;strokeColor=none;direction=west;fontSize=14;fontStyle=0;labelBackgroundColor=default;" parent="1" vertex="1">
          <mxGeometry x="210" y="108.5" width="50" height="22.5" as="geometry" />
        </mxCell>
        <mxCell id="o6eDRJYxuamuJcPeGK1Q-5" value="" style="edgeStyle=orthogonalEdgeStyle;rounded=0;orthogonalLoop=1;jettySize=auto;html=1;" parent="1" source="o6eDRJYxuamuJcPeGK1Q-1" target="o6eDRJYxuamuJcPeGK1Q-8" edge="1">
          <mxGeometry relative="1" as="geometry">
            <mxPoint x="250" y="309" as="sourcePoint" />
            <mxPoint x="370" y="309" as="targetPoint" />
            <Array as="points">
              <mxPoint x="200" y="310" />
              <mxPoint x="200" y="310" />
            </Array>
          </mxGeometry>
        </mxCell>
        <mxCell id="cRgJPDMEzFP9TilegyfI-26" value="Text" style="edgeLabel;html=1;align=center;verticalAlign=middle;resizable=0;points=[];" vertex="1" connectable="0" parent="o6eDRJYxuamuJcPeGK1Q-5">
          <mxGeometry x="0.0588" y="1" relative="1" as="geometry">
            <mxPoint as="offset" />
          </mxGeometry>
        </mxCell>
        <mxCell id="o6eDRJYxuamuJcPeGK1Q-6" style="edgeStyle=orthogonalEdgeStyle;rounded=0;orthogonalLoop=1;jettySize=auto;html=1;exitX=0.995;exitY=0.475;exitDx=0;exitDy=0;exitPerimeter=0;" parent="1" source="o6eDRJYxuamuJcPeGK1Q-8" target="cRgJPDMEzFP9TilegyfI-18" edge="1">
          <mxGeometry relative="1" as="geometry">
            <Array as="points">
              <mxPoint x="260" y="310" />
              <mxPoint x="689" y="310" />
            </Array>
          </mxGeometry>
        </mxCell>
        <mxCell id="o6eDRJYxuamuJcPeGK1Q-7" value="&lt;font style=&quot;font-size: 12px;&quot;&gt;HTTP Request&lt;br&gt;GET Method&lt;br&gt;&lt;span style=&quot;color: rgb(0, 29, 53); font-family: &amp;quot;Google Sans&amp;quot;, Arial, sans-serif; text-align: left; text-wrap-mode: wrap;&quot;&gt;https://api.neon.com/v1/ssot&lt;/span&gt;&lt;/font&gt;" style="edgeLabel;html=1;align=center;verticalAlign=middle;resizable=0;points=[];" parent="o6eDRJYxuamuJcPeGK1Q-6" vertex="1" connectable="0">
          <mxGeometry x="-0.1271" relative="1" as="geometry">
            <mxPoint x="-3" y="-30" as="offset" />
          </mxGeometry>
        </mxCell>
        <mxCell id="o6eDRJYxuamuJcPeGK1Q-8" value="" style="points=[[0,0.5,0],[0.24,0,0],[0.5,0.28,0],[0.995,0.475,0],[0.5,0.72,0],[0.24,1,0]];verticalLabelPosition=bottom;sketch=0;html=1;verticalAlign=top;aspect=fixed;align=center;pointerEvents=1;shape=mxgraph.cisco19.key;fillColor=#000000;strokeColor=none;direction=west;flipH=1;fontSize=14;" parent="1" vertex="1">
          <mxGeometry x="210" y="300" width="50" height="22.5" as="geometry" />
        </mxCell>
        <mxCell id="o6eDRJYxuamuJcPeGK1Q-9" value="AWS Cloud" style="points=[[0,0],[0.25,0],[0.5,0],[0.75,0],[1,0],[1,0.25],[1,0.5],[1,0.75],[1,1],[0.75,1],[0.5,1],[0.25,1],[0,1],[0,0.75],[0,0.5],[0,0.25]];outlineConnect=0;gradientColor=none;html=1;whiteSpace=wrap;fontSize=12;fontStyle=0;container=1;pointerEvents=0;collapsible=0;recursiveResize=0;shape=mxgraph.aws4.group;grIcon=mxgraph.aws4.group_aws_cloud_alt;strokeColor=#000000;fillColor=none;verticalAlign=top;align=left;spacingLeft=30;fontColor=#232F3E;dashed=0;" parent="1" vertex="1">
          <mxGeometry x="470" y="30" width="1010" height="460" as="geometry" />
        </mxCell>
        <mxCell id="o6eDRJYxuamuJcPeGK1Q-11" value="" style="edgeStyle=orthogonalEdgeStyle;rounded=0;orthogonalLoop=1;jettySize=auto;html=1;" parent="o6eDRJYxuamuJcPeGK1Q-9" source="cRgJPDMEzFP9TilegyfI-18" target="o6eDRJYxuamuJcPeGK1Q-18" edge="1">
          <mxGeometry relative="1" as="geometry">
            <Array as="points">
              <mxPoint x="190" y="300" />
              <mxPoint x="190" y="300" />
            </Array>
          </mxGeometry>
        </mxCell>
        <mxCell id="o6eDRJYxuamuJcPeGK1Q-13" value="" style="edgeStyle=orthogonalEdgeStyle;rounded=0;orthogonalLoop=1;jettySize=auto;html=1;" parent="o6eDRJYxuamuJcPeGK1Q-9" source="cRgJPDMEzFP9TilegyfI-17" target="cRgJPDMEzFP9TilegyfI-18" edge="1">
          <mxGeometry relative="1" as="geometry" />
        </mxCell>
        <mxCell id="o6eDRJYxuamuJcPeGK1Q-14" value="" style="edgeStyle=orthogonalEdgeStyle;rounded=0;orthogonalLoop=1;jettySize=auto;html=1;" parent="o6eDRJYxuamuJcPeGK1Q-9" source="o6eDRJYxuamuJcPeGK1Q-18" target="o6eDRJYxuamuJcPeGK1Q-16" edge="1">
          <mxGeometry relative="1" as="geometry">
            <mxPoint x="134" y="265" as="sourcePoint" />
            <mxPoint x="329.0588235294117" y="130" as="targetPoint" />
            <Array as="points">
              <mxPoint x="350" y="280" />
              <mxPoint x="350" y="280" />
            </Array>
          </mxGeometry>
        </mxCell>
        <mxCell id="o6eDRJYxuamuJcPeGK1Q-15" value="Auto Scaling group" style="points=[[0,0],[0.25,0],[0.5,0],[0.75,0],[1,0],[1,0.25],[1,0.5],[1,0.75],[1,1],[0.75,1],[0.5,1],[0.25,1],[0,1],[0,0.75],[0,0.5],[0,0.25]];outlineConnect=0;gradientColor=none;html=1;whiteSpace=wrap;fontSize=12;fontStyle=0;container=1;pointerEvents=0;collapsible=0;recursiveResize=0;shape=mxgraph.aws4.groupCenter;grIcon=mxgraph.aws4.group_auto_scaling_group;grStroke=1;strokeColor=light-dark(#000000, #d8762e);fillColor=none;verticalAlign=top;align=center;fontColor=light-dark(#000000, #d8762e);dashed=1;spacingTop=25;" parent="o6eDRJYxuamuJcPeGK1Q-9" vertex="1">
          <mxGeometry x="370" y="185" width="140" height="206" as="geometry" />
        </mxCell>
        <mxCell id="o6eDRJYxuamuJcPeGK1Q-16" value="&lt;font style=&quot;font-size: 14px;&quot;&gt;ECS Service&lt;br&gt;(ssot)&lt;/font&gt;" style="sketch=0;outlineConnect=0;fontColor=#232F3E;gradientColor=none;fillColor=light-dark(#000000, #d86d0c);strokeColor=none;dashed=0;verticalLabelPosition=bottom;verticalAlign=top;align=center;html=1;fontSize=12;fontStyle=0;aspect=fixed;pointerEvents=1;shape=mxgraph.aws4.ecs_service;" parent="o6eDRJYxuamuJcPeGK1Q-15" vertex="1">
          <mxGeometry x="37.5" y="63" width="65" height="80" as="geometry" />
        </mxCell>
        <mxCell id="o6eDRJYxuamuJcPeGK1Q-17" value="FastAPI&#xa;Python Web Framework" style="shape=image;verticalLabelPosition=bottom;labelBackgroundColor=default;verticalAlign=top;aspect=fixed;imageAspect=0;image=data:image/png,iVBORw0KGgoAAAANSUhEUgAAAgAAAAIACAMAAADDpiTIAAAAV1BMVEVMaXEAl4cCl4cCl4kEl4cClYkClYcElYcAj48El4cAlYsCl4kClYcCl4kEl4kEl4kElYkElYkClYkCl4kEl4kClYkCl4kEl4sClYkCl4kEl4kClYkEl4mtLhB+AAAAHHRSTlMAIKHxQO9ggRDBMN/hUL/Rz5GxcH6frz5uXo9O0/0UAAAAAAlwSFlzAAALEwAACxMBAJqcGAAAET1JREFUeNrtndt2qzoMRQ0DMLfkAA0tbfz/33nG7mXvXtI2EANa0tJjn+poMm3JxjhnJOqH6XQ8duH3OB7H0+ND4hhKEv94Go95mB/d8el0JgiYUT48nE7j8RhixPH4dJoeav6qGPEwjXHy/iWa+9O55A8s2vfTfVg5uidCINP5j6dFM/0iCMaJawM5kZyfNkv9h6XB0yMp2F/6T13YMZqnM3OwZ/absHvkIxnYw/sPj6OA7L8ycH96eGBOtkv+dJ8HeXH/yPJgi+X+YxekRj6yW7RynMcgO5qJlcGKa748AETzRA+sMfE/NQEmyED0ZV8XwKI5cS6Ituy7D5BxZFkQIbIxD7DBsuDWeOwCeHTUwHL3n/KgIPIxYy6XLPzGoCaaR+Zz7tR/DKqimTgTmJr6L8wEJyJw5dQ/NUFlEAFDKz8iwPQTgQVzv/L0E4Gf098EE0EETKefCJhPPxH42vYxln4ioLrrdz0CzP2fnr/R9HOP4KXwH4PpaA6283/Kg/U4Gj46ZnHtx6XAv8n/nsl/ic7kiZGJ9v8XT+ZKQstr/4uLwYyPv/G4NySBumO+LywGrVSEychkW5bAiYm2LAHa37YEuPgzLYGSrR/TEqjZ+TXdE5iYWsuNQep/1u5ATf3vG206tLuuBSfqf89I//zTA9eCVvXfPv/bfue1oJppAK/5U0gAIAQl00AB1/zJX+x7x5ZAjADc+vEv/3nGaiDC9I/Y+0/EABDyAjv/GWLvP3VyAAjhidXfTgIQAkA4wi4EQF/6SJ0sAGAXAgno1n8iDYCQQ+4O1aBb/6kTB8BbYwKr+kfdh0kkAoC3FITNf+pEAhBGdn+2FoAsAEJXMv/bCkAYAEAElMCvfSVyAYApB0vgk9+pEwxAyCEISJBP/ieiAYAgoEY++Z862QAAtISg8/9RABIBEN8Sws5/6uQDIJsA7Px/EoBQACQTAJ7/1EEAIJcA8Px/FoBYAKQSgJ7/1KEAIJMA9Px/EYBgACQSAJ//1AEBII8A+Px/FYBoAKQRUMLn3zssAIKonmAJf/NPXqIBIGlfAD//lwTgykACrOQ/v3jYIpCAq0LB3R/eAQIQGhlnhBRc/HlZAOIBkHFKTMPFr5cFIB8ACQQUQa0AAADYnwAN+f9OAAgA7P2+QBYUCwACgNCzAbyWADAA2LMpXKq4+rt12ADs2BTWcfV7gQ7Abg0hHV/++F4AKADs1RDyQbkAYADYpxgsgnYB4ACwRzFY5+oFAATA9sVg2egXABIAYesvzWj58GehBYCNS4E+GBAAFADbLgSVLAB/66FgjWXkAnB2VE4RAOGOC8DITVRlw+ERsJkCgAMg32YZcBeMCAAOgNBtsgAIVgSAB8D3O9tcACyZMjWOiQuA6wWACMDqG4NqOgDXPCyIoxrZAbgyUqcSgJU3BTo9AkiUApAnK+bfB0sCwAQgHFkBRhIAKAAr1oKdLQGgAhBqTgBRBAALQMcJIIoAYAFYaV+wsyYAXABWqQQ0TQBXHqHEHeAKlUCiKP/XbpsCDzH+C4NHRQBcWycZYNzgIYAZPw7yIO8jbwLnBgUADUDkjeF7iwLABiDqxvAhWBSAszJOS6eAZi2PwAcarxnQ2xQAOABXtjuviExT/ltnBoBo60BNPeBZHRL0sUbaFCqsCsCZot1GC2DeT2JpwWtjE2ieAPABiHFxSGJXAAoACLeXgqldAWgA4OZSUNMu8OxFkYYhZxTAv6icPQCOFMDypyFQAUfLAtABwE0KyEwLQAcAN70saFsASgBoKIClk6HN2ocC0AZAQwEsXA1rGfodBbBIAGoAyCmAZW/Mqhl8QQEs6omrGX1DASSmAVikgNS8ABQBsEABCQWgCIAFCqAAVAHQUAC2AZitAApAGQAzFaDrKHBCAOZ2Qj0FoA2AeecCNAlg+eH4YFYBql4GWv6adDCrgI4C0AfADAVkFIBGAIarBz5QABoBuLoaSigAnQCkBptAN70fG2wqwOaVcCYASM01gW57QV4dAOGqn6OhANQCcM3xUE13ArYlAfgQlbEa8MY7cvQBkNuqAVtHAGbXAXcUgGYAfv9JOgpAMwBHSzNAQQDmzwE9BaAbgN5OE6AgAPPrgJoCUA7AL8+FohngQAAWLAP1zACVIwDzl4GKZoCMACxYBvYUgH4AGhMzQEYAvo3awGHQKALQCkBq4CxYRgCWtAJyCsACAN/OAQcKwAYAvfYaIJIA1ALQaa8BEgKw5AdS0wWK9sVMtQAcdJ8FSgjAokXAQAFYAaBTXQQmBODXKBUvAeIJQDEAmeIlQEIAli0CUgrADgCd3i5AQgCW/UxKlgDeEYBlv5OOJUCU76VbAKBR+kZQVAFoBuBLMzChAGwBkKqcAeIKQDUAjcYZILIAVAPwqRmYUADWAMj0HQaKLQDdANzpuxkstgBU3Zn+y6+lYSu4jS0AV2kGoFI31MIRgMVlgIIioHUEYFZoW+4UBGB5GVBTAPYAuNNVBRYEYGakqqrANQSgHIBG1UjXEICmC3MuRaJoDbiKAHR9PfGnhwZ/DZgRgFsWAfB7wdUq+Xd1FS1kLwJSCmCbqLPiP4mLgI4C2CwkbbwftKwBMyAAJFVcXsndUEgCELWyfPuUaEEBbBiCmguNjmoHSwCimm46+oBYAigF/nTYbwUOjkuAG8sANR1thCpQ1DlDr6ARnGIJIBX442UUwHatQInr5zsKYLM4StwN8BTAViFOtvDvBFAAt0WJ3gagACI0AnIKwKoAXgCgAMwK4LkRAPxmeE8BRAAAtw0Q/XVwcwJ4foRwAfBYApC45VIhtwHABCDy1AU0ABRAnFZgSgGYFcBzK7CiAMwKABkACiBWLzinAOwK4E8rkAIwLABcACiAWABgHghrHQUQJQrQRmBBAcQyaUYBGBZA8JjvhVEA8QDwFIBhAYACQAFEiwERAAogXlSIe0EUQEwAKgrAsAAgAaAAbANQUQC2AcgogIjRwF0RRwHEDUcBWBYAHgBgApDfZXEUwIpR5gSAAiAAFAABoAAIAAVAAG4N3glpHICEAjANQEoB2AaAArANAAWwCgAVBWBZAEAAUADGAaAAbANAARgHgAJYCQCQL2T3FMBKAGD8q2D3QeAIoAUBwFMA60SF8b9SAOsBkFEAhgUAAgAFYBwACmDF9kpCARgWwJ9niwIwLAAIACiAFePOuVb6/1hQAOtFJv+yaLD7ILAEgAAABbDqVoCTvhtEAawNgKcA7ArgP/EfD6cAVm4ESv9sHAWwaoj/bmBFAazfYxNepVAAa/++FIBZAbwA8B8FYFUA4fnfrigAqwJ4AUDuddE1BbDFEyb2/04pgE0AEHuZZUIBbFEFim0EeApgm5+4lNumpgA2qbJYAhoVwNtvLLIObCmA9eP1sN0gdZuCAtiiDSAU3gMFsHp0r//8gUsAmwJ4u3izJgAmBfCv0CYAJgUQzm//v8Qy4J4C2K7VKvJgcDueTg+vkVAAK0T+dwDnYCa6AwXwFv922xM7AKyxwwAqgPetlpYA2BPA+xPXAwGwJ4D32+2eANgTQP5uDBkBsCeA9ycuSwJgTgAff4mcAFgTwMdea0UArAkglATAtAC6D+PoCYA1AXw8dF8QAGMC+PTifU0AjAng81sXOQGwJYDPh25TAmBLAOOnoRwIgCkBfL17hwCYEsDXFy8HAmBJAF/fuykIgCUBjF9xJgCGBHDp+r2OANgRwKW7FzwBsCOAS6/engmAHQGMFwaUEQAzArh8Ay8BMCOAy9cvVQTAigC6i2OaTAAwUgDf3b5h4/2gigJ491qwwW5wRQH8vRrGWdwRrCiAvzeDfImcAJgQwPTduFICYEEA39/BmxEACwLovh9ZTgAMCGD6fmgpAdAvgJ9uYT8QAP0C6H4aHAHQL4C7nwY3EADtAvj5OxwFAdAugJ9/gJIAaBfALx/jHQiAbgHk5c/jKwiAbgH89im2kgCoFsDvl3APBECzAH7/Es+ZAGgWwBUn4loCoFcA13yM0xMAvb/NNV/jLQmAXgFc9R2WkQBoFcB1H2NMCIBWAUzXDTQlADoF8FsX0IQCKsMCSK8daksAVJZH9bVDHQmARgFcP/SaAGgUwIxvcVYEQJ8A2hmjPRMAfQIo5gy3JQDaBJDPGm9BALQJYObNGC0B0CWAUFojPioA+D9Hag/5iAAo+DUSe8xHBMCeAPQqoKIAbCugMimA0Sb2kQCwKQCtClgAwB38oAertW8cABr4QWdWu19RACgsQq9XAZVBAdQLAVCpgMqeANKl+VepgMqeAJLFAGhUQGVOALfcj1625gEwLQCN5wIqrgBsnwuoKIBZcbYNAL4Abv5ETmUaAHgB5OWtAGSWAaAA9F0aVJkSQHt7/l2SmwUAXwBFBACUdYMqSwLoYuRfWTeosiSALAoAukrBypAA4nwiT1kpWBkSQBILgNokAPACiPWdbOdcrweA3owA2jIeAIrWgd6MADIXMc7mAIAXwOCixmANAHQB5GVcANT0A70RARxc5LizBQC6AAYXPTpLAKALIPYEoKgZ4E0I4OxWCG8HAHQBDG6V6MwAAC6ANSYANZOANyCAg1spvBEAwAUwuNWiMwEAuADWmgCeJ4HcAgDgAji7FWMyAAC4AHq3agz6AcAWQFuuCwD8G+NeuQBqt3IctAPQKBec9dNBXrUAuvXz78pONQBH6Aow2QAA8FrQa34V8uA2iYNiAKAFkLqNolcLALQA1q4AdbSEvV4B1JvlH/mEoFcrgMltGAedACALYHCbxqQRAGQBdOW2AMB+Y97rFEBeb5x/2H6Q1ymAwm0eoAtBr1IA3u0QmbKfClgAqdslCl0A4ApgdDtFrwkAXAFsXgBAlwJenQDy/fKPWAp4bQLYvgD8QECrBQBYARRu14A7HOCVCWDn/OMR4HUJwLvdo9Dwi6EKIHWOBMQAAFQAo3MkIAYAGZ9/M+0Ar0cAOzaAPseIDUDC/NtxgNdytkFU/oEc4JUIQFj+cZ4ir0MA4vIP4wCvQgAC84+yMeQ1CEBi/lEI8AoEIDP/IM+SxxeA2PxDrAM8vAAE5x/hcfLoAhCdfwAHeHABCM+//CdqwhaA+PyLv082gxZAJT//0neHM2QBpA4iChgASqz8jw4kJJ8TzICmq0/RO0cCogKAde1p4YAi6RAAQBJADpV/58pBPgBIAtj3/R9NDYEMUgAtXv6lFgMZogC60iHGORcNAI4AUgcadSsZABgBTA42ykouACivs+SZQ45eLAAgL7Z3tcOOQphp3/4vkLtOh9Khh7CFwNu/VUHk3zsFIWshgCQA8OlfZsflIH676m9UpdMSmZzf+/mrChlC/nunKAS9M9BkyQlB/2enK8C/Nkf9a5oG2PxjNcDmj/VqQPLqr3Rao26ZXjPF/+VpYGSG1fd+AQ8JsPjbUgIp82z28X+JZGCqrT7+nAfMP/6v8wAl8HmPInO24syK0Ejt/60EuDugv/X3y2KQveGXxZ93VoPzwJ+Nv8QZDm+9HmgLZztsLwVyXzrzkaRMv/GoK6bfeGQV028dgY7pNx5Fy/QTAaafCDD9REBv24fpvwIBtRWB+a6f7aKQ6Z+DgLoDIx3Tb7lBXGXM6PxtIq9lPZgy/YbXg3maMJE37BOlOfjUz7rv1pmg6HAf/pr5s6uBduLDH1EDaKuBngu/2HUhUFEwcOZfZyroW4B5f+KzvyYDk+gl4XBmitafC4ohF/rws+LfKs7SJoO86vnwbyyCScqGUdefuebbJ7J+9xXBMNH7+3YIzv1uLYJ25KMvpTZIu83n/IKPvrD5YCMK2sFnfPClTgiZr/I1n3t/5nMvvz7I/Bgbg67yE597sCnh7Mfq5nZBNfgp41MP7YPC+6GqZj7wVe+njF19ZQuEVxae44MbXv82eF9ktp73/wFm9NNDANs+0QAAAABJRU5ErkJggg==;fontSize=14;" parent="o6eDRJYxuamuJcPeGK1Q-15" vertex="1">
          <mxGeometry x="103" y="170" width="37" height="37" as="geometry" />
        </mxCell>
        <mxCell id="o6eDRJYxuamuJcPeGK1Q-18" value="&lt;span style=&quot;font-weight: normal;&quot;&gt;Elastic Load Balancing&lt;/span&gt;" style="sketch=0;outlineConnect=0;fontColor=#232F3E;gradientColor=none;strokeColor=#ffffff;fillColor=#000000;dashed=0;verticalLabelPosition=middle;verticalAlign=bottom;align=center;html=1;whiteSpace=wrap;fontSize=14;fontStyle=1;spacing=3;shape=mxgraph.aws4.productIcon;prIcon=mxgraph.aws4.elastic_load_balancing;" parent="o6eDRJYxuamuJcPeGK1Q-9" vertex="1">
          <mxGeometry x="220" y="254" width="80" height="137" as="geometry" />
        </mxCell>
        <mxCell id="o6eDRJYxuamuJcPeGK1Q-19" value="" style="edgeStyle=orthogonalEdgeStyle;rounded=0;orthogonalLoop=1;jettySize=auto;html=1;dashed=1;" parent="o6eDRJYxuamuJcPeGK1Q-9" source="o6eDRJYxuamuJcPeGK1Q-34" target="o6eDRJYxuamuJcPeGK1Q-16" edge="1">
          <mxGeometry relative="1" as="geometry">
            <mxPoint x="620" y="315" as="sourcePoint" />
            <mxPoint x="411" y="315" as="targetPoint" />
            <Array as="points">
              <mxPoint x="560" y="300" />
              <mxPoint x="560" y="300" />
            </Array>
          </mxGeometry>
        </mxCell>
        <mxCell id="cRgJPDMEzFP9TilegyfI-3" value="Get SQL query&lt;br&gt;result&lt;div&gt;&lt;br&gt;&lt;/div&gt;" style="edgeLabel;html=1;align=center;verticalAlign=middle;resizable=0;points=[];fontSize=12;" vertex="1" connectable="0" parent="o6eDRJYxuamuJcPeGK1Q-19">
          <mxGeometry x="0.1972" relative="1" as="geometry">
            <mxPoint x="32" y="35" as="offset" />
          </mxGeometry>
        </mxCell>
        <mxCell id="o6eDRJYxuamuJcPeGK1Q-20" style="edgeStyle=orthogonalEdgeStyle;rounded=0;orthogonalLoop=1;jettySize=auto;html=1;" parent="o6eDRJYxuamuJcPeGK1Q-9" source="o6eDRJYxuamuJcPeGK1Q-16" target="o6eDRJYxuamuJcPeGK1Q-34" edge="1">
          <mxGeometry relative="1" as="geometry">
            <mxPoint x="465" y="275" as="sourcePoint" />
            <mxPoint x="641" y="275" as="targetPoint" />
            <Array as="points">
              <mxPoint x="560" y="280" />
              <mxPoint x="560" y="280" />
            </Array>
          </mxGeometry>
        </mxCell>
        <mxCell id="o6eDRJYxuamuJcPeGK1Q-21" value="&lt;font style=&quot;font-size: 12px;&quot;&gt;Send modified&lt;br&gt;SQL query&lt;/font&gt;" style="edgeLabel;html=1;align=center;verticalAlign=middle;resizable=0;points=[];" parent="o6eDRJYxuamuJcPeGK1Q-20" vertex="1" connectable="0">
          <mxGeometry x="-0.1412" y="-3" relative="1" as="geometry">
            <mxPoint x="18" y="-28" as="offset" />
          </mxGeometry>
        </mxCell>
        <mxCell id="o6eDRJYxuamuJcPeGK1Q-22" style="edgeStyle=orthogonalEdgeStyle;rounded=0;orthogonalLoop=1;jettySize=auto;html=1;" parent="o6eDRJYxuamuJcPeGK1Q-9" source="o6eDRJYxuamuJcPeGK1Q-16" target="o6eDRJYxuamuJcPeGK1Q-31" edge="1">
          <mxGeometry relative="1" as="geometry">
            <mxPoint x="550" y="245" as="sourcePoint" />
            <mxPoint x="770" y="282" as="targetPoint" />
            <Array as="points">
              <mxPoint x="420" y="60" />
            </Array>
          </mxGeometry>
        </mxCell>
        <mxCell id="o6eDRJYxuamuJcPeGK1Q-23" value="&lt;font&gt;Send role attribute&lt;br&gt;extracted from JWT&lt;/font&gt;" style="edgeLabel;html=1;align=center;verticalAlign=middle;resizable=0;points=[];fontSize=12;" parent="o6eDRJYxuamuJcPeGK1Q-22" vertex="1" connectable="0">
          <mxGeometry x="-0.3846" y="1" relative="1" as="geometry">
            <mxPoint x="-69" y="-10" as="offset" />
          </mxGeometry>
        </mxCell>
        <mxCell id="o6eDRJYxuamuJcPeGK1Q-24" style="edgeStyle=orthogonalEdgeStyle;rounded=0;orthogonalLoop=1;jettySize=auto;html=1;startArrow=classic;startFill=0;endArrow=none;dashed=1;" parent="o6eDRJYxuamuJcPeGK1Q-9" source="o6eDRJYxuamuJcPeGK1Q-16" target="o6eDRJYxuamuJcPeGK1Q-31" edge="1">
          <mxGeometry relative="1" as="geometry">
            <mxPoint x="420" y="258" as="sourcePoint" />
            <mxPoint x="420" y="123" as="targetPoint" />
            <Array as="points">
              <mxPoint x="460" y="80" />
            </Array>
          </mxGeometry>
        </mxCell>
        <mxCell id="o6eDRJYxuamuJcPeGK1Q-25" value="&lt;font style=&quot;font-size: 12px;&quot;&gt;Retrieve SQL&lt;br&gt;query with filters&lt;/font&gt;" style="edgeLabel;html=1;align=center;verticalAlign=middle;resizable=0;points=[];fontSize=13;" parent="o6eDRJYxuamuJcPeGK1Q-24" vertex="1" connectable="0">
          <mxGeometry x="0.2" y="-3" relative="1" as="geometry">
            <mxPoint x="41" y="25" as="offset" />
          </mxGeometry>
        </mxCell>
        <mxCell id="o6eDRJYxuamuJcPeGK1Q-27" style="edgeStyle=orthogonalEdgeStyle;rounded=0;orthogonalLoop=1;jettySize=auto;html=1;" parent="o6eDRJYxuamuJcPeGK1Q-9" source="o6eDRJYxuamuJcPeGK1Q-28" target="o6eDRJYxuamuJcPeGK1Q-37" edge="1">
          <mxGeometry relative="1" as="geometry">
            <Array as="points">
              <mxPoint x="880" y="160" />
              <mxPoint x="880" y="160" />
            </Array>
            <mxPoint x="880" y="192.95000000000016" as="targetPoint" />
          </mxGeometry>
        </mxCell>
        <mxCell id="o6eDRJYxuamuJcPeGK1Q-28" value="MongoDB" style="dashed=0;outlineConnect=0;html=1;align=center;labelPosition=center;verticalLabelPosition=bottom;verticalAlign=top;shape=mxgraph.weblogos.mongodb" parent="o6eDRJYxuamuJcPeGK1Q-9" vertex="1">
          <mxGeometry x="870" y="32.35" width="50" height="90.5" as="geometry" />
        </mxCell>
        <mxCell id="o6eDRJYxuamuJcPeGK1Q-29" style="edgeStyle=orthogonalEdgeStyle;rounded=0;orthogonalLoop=1;jettySize=auto;html=1;" parent="o6eDRJYxuamuJcPeGK1Q-9" source="o6eDRJYxuamuJcPeGK1Q-31" target="o6eDRJYxuamuJcPeGK1Q-28" edge="1">
          <mxGeometry relative="1" as="geometry">
            <Array as="points">
              <mxPoint x="780" y="60" />
              <mxPoint x="780" y="60" />
            </Array>
          </mxGeometry>
        </mxCell>
        <mxCell id="o6eDRJYxuamuJcPeGK1Q-30" value="Get role data&lt;br&gt;&lt;span style=&quot;color: light-dark(rgb(0, 0, 0), rgb(255, 255, 255)); background-color: light-dark(#ffffff, var(--ge-dark-color, #121212));&quot;&gt;to build SQL query&lt;/span&gt;" style="edgeLabel;html=1;align=center;verticalAlign=middle;resizable=0;points=[];fontSize=12;" parent="o6eDRJYxuamuJcPeGK1Q-29" vertex="1" connectable="0">
          <mxGeometry x="0.0106" y="-2" relative="1" as="geometry">
            <mxPoint x="10" y="-20" as="offset" />
          </mxGeometry>
        </mxCell>
        <mxCell id="o6eDRJYxuamuJcPeGK1Q-31" value="SQL&lt;br&gt;Query Builder" style="sketch=0;pointerEvents=1;shadow=0;dashed=0;html=1;strokeColor=none;fillColor=#000000;labelPosition=center;verticalLabelPosition=bottom;verticalAlign=top;outlineConnect=0;align=center;shape=mxgraph.office.concepts.settings_office_365;" parent="o6eDRJYxuamuJcPeGK1Q-9" vertex="1">
          <mxGeometry x="610.73" y="39.5" width="76.18" height="76.2" as="geometry" />
        </mxCell>
        <mxCell id="o6eDRJYxuamuJcPeGK1Q-32" style="edgeStyle=orthogonalEdgeStyle;rounded=0;orthogonalLoop=1;jettySize=auto;html=1;startArrow=none;startFill=0;endArrow=classic;dashed=1;endFill=1;" parent="o6eDRJYxuamuJcPeGK1Q-9" source="o6eDRJYxuamuJcPeGK1Q-28" target="o6eDRJYxuamuJcPeGK1Q-31" edge="1">
          <mxGeometry relative="1" as="geometry">
            <mxPoint x="470" y="258" as="sourcePoint" />
            <mxPoint x="621" y="105" as="targetPoint" />
            <Array as="points">
              <mxPoint x="790" y="80" />
              <mxPoint x="790" y="80" />
            </Array>
          </mxGeometry>
        </mxCell>
        <mxCell id="o6eDRJYxuamuJcPeGK1Q-33" value="&lt;span style=&quot;font-size: 12px;&quot;&gt;Retrive permissions&lt;/span&gt;&lt;br style=&quot;font-size: 12px;&quot;&gt;&lt;span style=&quot;font-size: 12px;&quot;&gt;under which the role&lt;/span&gt;&lt;div style=&quot;font-size: 12px;&quot;&gt;can perform&lt;/div&gt;" style="edgeLabel;html=1;align=center;verticalAlign=middle;resizable=0;points=[];" parent="o6eDRJYxuamuJcPeGK1Q-32" vertex="1" connectable="0">
          <mxGeometry x="-0.0332" relative="1" as="geometry">
            <mxPoint x="9" y="37" as="offset" />
          </mxGeometry>
        </mxCell>
        <mxCell id="o6eDRJYxuamuJcPeGK1Q-34" value="&lt;span style=&quot;font-size: 14px; background-color: rgb(255, 255, 255);&quot;&gt;Data Storage&lt;/span&gt;&lt;br style=&quot;font-size: 14px; background-color: rgb(255, 255, 255);&quot;&gt;&lt;span style=&quot;font-size: 14px; background-color: rgb(255, 255, 255);&quot;&gt;Table SSOT&lt;/span&gt;" style="verticalLabelPosition=bottom;html=1;verticalAlign=top;align=center;strokeColor=none;fillColor=#000000;shape=mxgraph.azure.sql_database;" parent="o6eDRJYxuamuJcPeGK1Q-9" vertex="1">
          <mxGeometry x="636" y="247.58" width="63.09" height="80.42" as="geometry" />
        </mxCell>
        <mxCell id="o6eDRJYxuamuJcPeGK1Q-36" value="" style="edgeStyle=orthogonalEdgeStyle;rounded=0;orthogonalLoop=1;jettySize=auto;html=1;startArrow=classic;startFill=1;endArrow=none;dashed=1;" parent="o6eDRJYxuamuJcPeGK1Q-9" source="o6eDRJYxuamuJcPeGK1Q-28" target="o6eDRJYxuamuJcPeGK1Q-37" edge="1">
          <mxGeometry relative="1" as="geometry">
            <mxPoint x="1380" y="153" as="sourcePoint" />
            <mxPoint x="910" y="192.95000000000016" as="targetPoint" />
            <Array as="points">
              <mxPoint x="910" y="160" />
              <mxPoint x="910" y="160" />
            </Array>
          </mxGeometry>
        </mxCell>
        <mxCell id="o6eDRJYxuamuJcPeGK1Q-37" value="&lt;div style=&quot;text-align: start;&quot;&gt;&lt;div&gt;&lt;div&gt;&lt;span style=&quot;font-size: 11px; white-space-collapse: preserve;&quot;&gt;{&lt;/span&gt;&lt;/div&gt;&lt;div&gt;&lt;span style=&quot;font-size: 11px; white-space-collapse: preserve;&quot;&gt;&amp;nbsp; &amp;nbsp; &quot;_id&quot;: &quot;admin&quot;,&lt;/span&gt;&lt;/div&gt;&lt;div&gt;&lt;span style=&quot;font-size: 11px; white-space-collapse: preserve;&quot;&gt;&amp;nbsp; &amp;nbsp; &quot;name&quot;: &quot;Admin&quot;,&lt;/span&gt;&lt;/div&gt;&lt;div&gt;&lt;span style=&quot;font-size: 11px; white-space-collapse: preserve;&quot;&gt;&amp;nbsp; &amp;nbsp; &quot;permissions&quot;: [&lt;/span&gt;&lt;/div&gt;&lt;div&gt;&lt;span style=&quot;font-size: 11px;&quot;&gt;&lt;span style=&quot;white-space-collapse: preserve;&quot;&gt;&#x9;&#x9;&lt;/span&gt;&quot;read_pessoa_id&quot;&lt;/span&gt;&lt;/div&gt;&lt;div&gt;&lt;span style=&quot;font-size: 11px;&quot;&gt;&lt;span style=&quot;white-space-collapse: preserve;&quot;&gt;&#x9;&lt;/span&gt;]&lt;/span&gt;&lt;/div&gt;&lt;div&gt;&lt;span style=&quot;font-size: 11px; white-space-collapse: preserve;&quot;&gt;}&lt;/span&gt;&lt;/div&gt;&lt;/div&gt;&lt;div&gt;&lt;br&gt;&lt;/div&gt;&lt;/div&gt;" style="dashed=0;outlineConnect=0;html=1;align=center;labelPosition=center;verticalLabelPosition=bottom;verticalAlign=top;shape=mxgraph.weblogos.json" parent="o6eDRJYxuamuJcPeGK1Q-9" vertex="1">
          <mxGeometry x="865" y="199.2" width="60" height="61.6" as="geometry" />
        </mxCell>
        <mxCell id="cRgJPDMEzFP9TilegyfI-4" value="" style="edgeStyle=orthogonalEdgeStyle;rounded=0;orthogonalLoop=1;jettySize=auto;html=1;dashed=1;" edge="1" parent="o6eDRJYxuamuJcPeGK1Q-9" source="o6eDRJYxuamuJcPeGK1Q-16" target="o6eDRJYxuamuJcPeGK1Q-18">
          <mxGeometry relative="1" as="geometry">
            <mxPoint x="390" y="310" as="sourcePoint" />
            <mxPoint x="482" y="315" as="targetPoint" />
            <Array as="points">
              <mxPoint x="360" y="300" />
              <mxPoint x="360" y="300" />
            </Array>
          </mxGeometry>
        </mxCell>
        <mxCell id="cRgJPDMEzFP9TilegyfI-17" value="Amazon &lt;br&gt;Cognito" style="outlineConnect=0;fontColor=#232F3E;gradientColor=#F54749;gradientDirection=north;fillColor=#C7131F;strokeColor=#ffffff;dashed=0;verticalLabelPosition=bottom;verticalAlign=top;align=center;html=1;fontSize=14;fontStyle=0;aspect=fixed;shape=mxgraph.aws4.resourceIcon;resIcon=mxgraph.aws4.cognito;labelBackgroundColor=#ffffff;" vertex="1" parent="o6eDRJYxuamuJcPeGK1Q-9">
          <mxGeometry x="50" y="45.7" width="90.5" height="90.5" as="geometry" />
        </mxCell>
        <mxCell id="cRgJPDMEzFP9TilegyfI-18" value="Amazon API&lt;br&gt;Gateway&lt;br&gt;" style="outlineConnect=0;fontColor=#232F3E;gradientColor=#945DF2;gradientDirection=north;fillColor=#5A30B5;strokeColor=#ffffff;dashed=0;verticalLabelPosition=bottom;verticalAlign=top;align=center;html=1;fontSize=14;fontStyle=0;aspect=fixed;shape=mxgraph.aws4.resourceIcon;resIcon=mxgraph.aws4.api_gateway;labelBackgroundColor=#ffffff;" vertex="1" parent="o6eDRJYxuamuJcPeGK1Q-9">
          <mxGeometry x="56" y="249" width="78" height="78" as="geometry" />
        </mxCell>
        <mxCell id="cRgJPDMEzFP9TilegyfI-8" value="" style="edgeStyle=orthogonalEdgeStyle;rounded=0;orthogonalLoop=1;jettySize=auto;html=1;dashed=1;" edge="1" parent="1" source="cRgJPDMEzFP9TilegyfI-18" target="o6eDRJYxuamuJcPeGK1Q-1">
          <mxGeometry relative="1" as="geometry">
            <mxPoint x="700" y="350" as="sourcePoint" />
            <mxPoint x="618" y="350" as="targetPoint" />
            <Array as="points">
              <mxPoint x="420" y="330" />
              <mxPoint x="420" y="330" />
            </Array>
          </mxGeometry>
        </mxCell>
        <mxCell id="cRgJPDMEzFP9TilegyfI-19" value="Auto Scaling group" style="points=[[0,0],[0.25,0],[0.5,0],[0.75,0],[1,0],[1,0.25],[1,0.5],[1,0.75],[1,1],[0.75,1],[0.5,1],[0.25,1],[0,1],[0,0.75],[0,0.5],[0,0.25]];outlineConnect=0;gradientColor=none;html=1;whiteSpace=wrap;fontSize=12;fontStyle=0;container=1;pointerEvents=0;collapsible=0;recursiveResize=0;shape=mxgraph.aws4.groupCenter;grIcon=mxgraph.aws4.group_auto_scaling_group;grStroke=1;strokeColor=#D86613;fillColor=none;verticalAlign=top;align=center;fontColor=#D86613;dashed=1;spacingTop=25;" vertex="1" parent="1">
          <mxGeometry x="840" y="215" width="140" height="206" as="geometry" />
        </mxCell>
        <mxCell id="cRgJPDMEzFP9TilegyfI-20" value="" style="edgeStyle=orthogonalEdgeStyle;rounded=0;orthogonalLoop=1;jettySize=auto;html=1;" edge="1" parent="cRgJPDMEzFP9TilegyfI-19" source="cRgJPDMEzFP9TilegyfI-21" target="cRgJPDMEzFP9TilegyfI-22">
          <mxGeometry relative="1" as="geometry" />
        </mxCell>
        <mxCell id="cRgJPDMEzFP9TilegyfI-21" value="&lt;font style=&quot;font-size: 14px;&quot;&gt;ECS Service&lt;br&gt;(ssot)&lt;/font&gt;" style="sketch=0;outlineConnect=0;fontColor=#232F3E;gradientColor=none;fillColor=#ED7100;strokeColor=none;dashed=0;verticalLabelPosition=bottom;verticalAlign=top;align=center;html=1;fontSize=12;fontStyle=0;aspect=fixed;pointerEvents=1;shape=mxgraph.aws4.ecs_service;" vertex="1" parent="cRgJPDMEzFP9TilegyfI-19">
          <mxGeometry x="37.5" y="63" width="65" height="80" as="geometry" />
        </mxCell>
        <mxCell id="cRgJPDMEzFP9TilegyfI-22" value="FastAPI&#xa;Python Web Framework" style="shape=image;verticalLabelPosition=bottom;labelBackgroundColor=default;verticalAlign=top;aspect=fixed;imageAspect=0;image=data:image/png,iVBORw0KGgoAAAANSUhEUgAAAgAAAAIACAMAAADDpiTIAAAAV1BMVEVMaXEAl4cCl4cCl4kEl4cClYkClYcElYcAj48El4cAlYsCl4kClYcCl4kEl4kEl4kElYkElYkClYkCl4kEl4kClYkCl4kEl4sClYkCl4kEl4kClYkEl4mtLhB+AAAAHHRSTlMAIKHxQO9ggRDBMN/hUL/Rz5GxcH6frz5uXo9O0/0UAAAAAAlwSFlzAAALEwAACxMBAJqcGAAAET1JREFUeNrtndt2qzoMRQ0DMLfkAA0tbfz/33nG7mXvXtI2EANa0tJjn+poMm3JxjhnJOqH6XQ8duH3OB7H0+ND4hhKEv94Go95mB/d8el0JgiYUT48nE7j8RhixPH4dJoeav6qGPEwjXHy/iWa+9O55A8s2vfTfVg5uidCINP5j6dFM/0iCMaJawM5kZyfNkv9h6XB0yMp2F/6T13YMZqnM3OwZ/absHvkIxnYw/sPj6OA7L8ycH96eGBOtkv+dJ8HeXH/yPJgi+X+YxekRj6yW7RynMcgO5qJlcGKa748AETzRA+sMfE/NQEmyED0ZV8XwKI5cS6Ituy7D5BxZFkQIbIxD7DBsuDWeOwCeHTUwHL3n/KgIPIxYy6XLPzGoCaaR+Zz7tR/DKqimTgTmJr6L8wEJyJw5dQ/NUFlEAFDKz8iwPQTgQVzv/L0E4Gf098EE0EETKefCJhPPxH42vYxln4ioLrrdz0CzP2fnr/R9HOP4KXwH4PpaA6283/Kg/U4Gj46ZnHtx6XAv8n/nsl/ic7kiZGJ9v8XT+ZKQstr/4uLwYyPv/G4NySBumO+LywGrVSEychkW5bAiYm2LAHa37YEuPgzLYGSrR/TEqjZ+TXdE5iYWsuNQep/1u5ATf3vG206tLuuBSfqf89I//zTA9eCVvXfPv/bfue1oJppAK/5U0gAIAQl00AB1/zJX+x7x5ZAjADc+vEv/3nGaiDC9I/Y+0/EABDyAjv/GWLvP3VyAAjhidXfTgIQAkA4wi4EQF/6SJ0sAGAXAgno1n8iDYCQQ+4O1aBb/6kTB8BbYwKr+kfdh0kkAoC3FITNf+pEAhBGdn+2FoAsAEJXMv/bCkAYAEAElMCvfSVyAYApB0vgk9+pEwxAyCEISJBP/ieiAYAgoEY++Z862QAAtISg8/9RABIBEN8Sws5/6uQDIJsA7Px/EoBQACQTAJ7/1EEAIJcA8Px/FoBYAKQSgJ7/1KEAIJMA9Px/EYBgACQSAJ//1AEBII8A+Px/FYBoAKQRUMLn3zssAIKonmAJf/NPXqIBIGlfAD//lwTgykACrOQ/v3jYIpCAq0LB3R/eAQIQGhlnhBRc/HlZAOIBkHFKTMPFr5cFIB8ACQQUQa0AAADYnwAN+f9OAAgA7P2+QBYUCwACgNCzAbyWADAA2LMpXKq4+rt12ADs2BTWcfV7gQ7Abg0hHV/++F4AKADs1RDyQbkAYADYpxgsgnYB4ACwRzFY5+oFAATA9sVg2egXABIAYesvzWj58GehBYCNS4E+GBAAFADbLgSVLAB/66FgjWXkAnB2VE4RAOGOC8DITVRlw+ERsJkCgAMg32YZcBeMCAAOgNBtsgAIVgSAB8D3O9tcACyZMjWOiQuA6wWACMDqG4NqOgDXPCyIoxrZAbgyUqcSgJU3BTo9AkiUApAnK+bfB0sCwAQgHFkBRhIAKAAr1oKdLQGgAhBqTgBRBAALQMcJIIoAYAFYaV+wsyYAXABWqQQ0TQBXHqHEHeAKlUCiKP/XbpsCDzH+C4NHRQBcWycZYNzgIYAZPw7yIO8jbwLnBgUADUDkjeF7iwLABiDqxvAhWBSAszJOS6eAZi2PwAcarxnQ2xQAOABXtjuviExT/ltnBoBo60BNPeBZHRL0sUbaFCqsCsCZot1GC2DeT2JpwWtjE2ieAPABiHFxSGJXAAoACLeXgqldAWgA4OZSUNMu8OxFkYYhZxTAv6icPQCOFMDypyFQAUfLAtABwE0KyEwLQAcAN70saFsASgBoKIClk6HN2ocC0AZAQwEsXA1rGfodBbBIAGoAyCmAZW/Mqhl8QQEs6omrGX1DASSmAVikgNS8ABQBsEABCQWgCIAFCqAAVAHQUAC2AZitAApAGQAzFaDrKHBCAOZ2Qj0FoA2AeecCNAlg+eH4YFYBql4GWv6adDCrgI4C0AfADAVkFIBGAIarBz5QABoBuLoaSigAnQCkBptAN70fG2wqwOaVcCYASM01gW57QV4dAOGqn6OhANQCcM3xUE13ArYlAfgQlbEa8MY7cvQBkNuqAVtHAGbXAXcUgGYAfv9JOgpAMwBHSzNAQQDmzwE9BaAbgN5OE6AgAPPrgJoCUA7AL8+FohngQAAWLAP1zACVIwDzl4GKZoCMACxYBvYUgH4AGhMzQEYAvo3awGHQKALQCkBq4CxYRgCWtAJyCsACAN/OAQcKwAYAvfYaIJIA1ALQaa8BEgKw5AdS0wWK9sVMtQAcdJ8FSgjAokXAQAFYAaBTXQQmBODXKBUvAeIJQDEAmeIlQEIAli0CUgrADgCd3i5AQgCW/UxKlgDeEYBlv5OOJUCU76VbAKBR+kZQVAFoBuBLMzChAGwBkKqcAeIKQDUAjcYZILIAVAPwqRmYUADWAMj0HQaKLQDdANzpuxkstgBU3Zn+y6+lYSu4jS0AV2kGoFI31MIRgMVlgIIioHUEYFZoW+4UBGB5GVBTAPYAuNNVBRYEYGakqqrANQSgHIBG1UjXEICmC3MuRaJoDbiKAHR9PfGnhwZ/DZgRgFsWAfB7wdUq+Xd1FS1kLwJSCmCbqLPiP4mLgI4C2CwkbbwftKwBMyAAJFVcXsndUEgCELWyfPuUaEEBbBiCmguNjmoHSwCimm46+oBYAigF/nTYbwUOjkuAG8sANR1thCpQ1DlDr6ARnGIJIBX442UUwHatQInr5zsKYLM4StwN8BTAViFOtvDvBFAAt0WJ3gagACI0AnIKwKoAXgCgAMwK4LkRAPxmeE8BRAAAtw0Q/XVwcwJ4foRwAfBYApC45VIhtwHABCDy1AU0ABRAnFZgSgGYFcBzK7CiAMwKABkACiBWLzinAOwK4E8rkAIwLABcACiAWABgHghrHQUQJQrQRmBBAcQyaUYBGBZA8JjvhVEA8QDwFIBhAYACQAFEiwERAAogXlSIe0EUQEwAKgrAsAAgAaAAbANQUQC2AcgogIjRwF0RRwHEDUcBWBYAHgBgApDfZXEUwIpR5gSAAiAAFAABoAAIAAVAAG4N3glpHICEAjANQEoB2AaAArANAAWwCgAVBWBZAEAAUADGAaAAbANAARgHgAJYCQCQL2T3FMBKAGD8q2D3QeAIoAUBwFMA60SF8b9SAOsBkFEAhgUAAgAFYBwACmDF9kpCARgWwJ9niwIwLAAIACiAFePOuVb6/1hQAOtFJv+yaLD7ILAEgAAABbDqVoCTvhtEAawNgKcA7ArgP/EfD6cAVm4ESv9sHAWwaoj/bmBFAazfYxNepVAAa/++FIBZAbwA8B8FYFUA4fnfrigAqwJ4AUDuddE1BbDFEyb2/04pgE0AEHuZZUIBbFEFim0EeApgm5+4lNumpgA2qbJYAhoVwNtvLLIObCmA9eP1sN0gdZuCAtiiDSAU3gMFsHp0r//8gUsAmwJ4u3izJgAmBfCv0CYAJgUQzm//v8Qy4J4C2K7VKvJgcDueTg+vkVAAK0T+dwDnYCa6AwXwFv922xM7AKyxwwAqgPetlpYA2BPA+xPXAwGwJ4D32+2eANgTQP5uDBkBsCeA9ycuSwJgTgAff4mcAFgTwMdea0UArAkglATAtAC6D+PoCYA1AXw8dF8QAGMC+PTifU0AjAng81sXOQGwJYDPh25TAmBLAOOnoRwIgCkBfL17hwCYEsDXFy8HAmBJAF/fuykIgCUBjF9xJgCGBHDp+r2OANgRwKW7FzwBsCOAS6/engmAHQGMFwaUEQAzArh8Ay8BMCOAy9cvVQTAigC6i2OaTAAwUgDf3b5h4/2gigJ491qwwW5wRQH8vRrGWdwRrCiAvzeDfImcAJgQwPTduFICYEEA39/BmxEACwLovh9ZTgAMCGD6fmgpAdAvgJ9uYT8QAP0C6H4aHAHQL4C7nwY3EADtAvj5OxwFAdAugJ9/gJIAaBfALx/jHQiAbgHk5c/jKwiAbgH89im2kgCoFsDvl3APBECzAH7/Es+ZAGgWwBUn4loCoFcA13yM0xMAvb/NNV/jLQmAXgFc9R2WkQBoFcB1H2NMCIBWAUzXDTQlADoF8FsX0IQCKsMCSK8daksAVJZH9bVDHQmARgFcP/SaAGgUwIxvcVYEQJ8A2hmjPRMAfQIo5gy3JQDaBJDPGm9BALQJYObNGC0B0CWAUFojPioA+D9Hag/5iAAo+DUSe8xHBMCeAPQqoKIAbCugMimA0Sb2kQCwKQCtClgAwB38oAertW8cABr4QWdWu19RACgsQq9XAZVBAdQLAVCpgMqeANKl+VepgMqeAJLFAGhUQGVOALfcj1625gEwLQCN5wIqrgBsnwuoKIBZcbYNAL4Abv5ETmUaAHgB5OWtAGSWAaAA9F0aVJkSQHt7/l2SmwUAXwBFBACUdYMqSwLoYuRfWTeosiSALAoAukrBypAA4nwiT1kpWBkSQBILgNokAPACiPWdbOdcrweA3owA2jIeAIrWgd6MADIXMc7mAIAXwOCixmANAHQB5GVcANT0A70RARxc5LizBQC6AAYXPTpLAKALIPYEoKgZ4E0I4OxWCG8HAHQBDG6V6MwAAC6ANSYANZOANyCAg1spvBEAwAUwuNWiMwEAuADWmgCeJ4HcAgDgAji7FWMyAAC4AHq3agz6AcAWQFuuCwD8G+NeuQBqt3IctAPQKBec9dNBXrUAuvXz78pONQBH6Aow2QAA8FrQa34V8uA2iYNiAKAFkLqNolcLALQA1q4AdbSEvV4B1JvlH/mEoFcrgMltGAedACALYHCbxqQRAGQBdOW2AMB+Y97rFEBeb5x/2H6Q1ymAwm0eoAtBr1IA3u0QmbKfClgAqdslCl0A4ApgdDtFrwkAXAFsXgBAlwJenQDy/fKPWAp4bQLYvgD8QECrBQBYARRu14A7HOCVCWDn/OMR4HUJwLvdo9Dwi6EKIHWOBMQAAFQAo3MkIAYAGZ9/M+0Ar0cAOzaAPseIDUDC/NtxgNdytkFU/oEc4JUIQFj+cZ4ir0MA4vIP4wCvQgAC84+yMeQ1CEBi/lEI8AoEIDP/IM+SxxeA2PxDrAM8vAAE5x/hcfLoAhCdfwAHeHABCM+//CdqwhaA+PyLv082gxZAJT//0neHM2QBpA4iChgASqz8jw4kJJ8TzICmq0/RO0cCogKAde1p4YAi6RAAQBJADpV/58pBPgBIAtj3/R9NDYEMUgAtXv6lFgMZogC60iHGORcNAI4AUgcadSsZABgBTA42ykouACivs+SZQ45eLAAgL7Z3tcOOQphp3/4vkLtOh9Khh7CFwNu/VUHk3zsFIWshgCQA8OlfZsflIH676m9UpdMSmZzf+/mrChlC/nunKAS9M9BkyQlB/2enK8C/Nkf9a5oG2PxjNcDmj/VqQPLqr3Rao26ZXjPF/+VpYGSG1fd+AQ8JsPjbUgIp82z28X+JZGCqrT7+nAfMP/6v8wAl8HmPInO24syK0Ejt/60EuDugv/X3y2KQveGXxZ93VoPzwJ+Nv8QZDm+9HmgLZztsLwVyXzrzkaRMv/GoK6bfeGQV028dgY7pNx5Fy/QTAaafCDD9REBv24fpvwIBtRWB+a6f7aKQ6Z+DgLoDIx3Tb7lBXGXM6PxtIq9lPZgy/YbXg3maMJE37BOlOfjUz7rv1pmg6HAf/pr5s6uBduLDH1EDaKuBngu/2HUhUFEwcOZfZyroW4B5f+KzvyYDk+gl4XBmitafC4ohF/rws+LfKs7SJoO86vnwbyyCScqGUdefuebbJ7J+9xXBMNH7+3YIzv1uLYJ25KMvpTZIu83n/IKPvrD5YCMK2sFnfPClTgiZr/I1n3t/5nMvvz7I/Bgbg67yE597sCnh7Mfq5nZBNfgp41MP7YPC+6GqZj7wVe+njF19ZQuEVxae44MbXv82eF9ktp73/wFm9NNDANs+0QAAAABJRU5ErkJggg==;fontSize=14;" vertex="1" parent="cRgJPDMEzFP9TilegyfI-19">
          <mxGeometry x="103" y="170" width="37" height="37" as="geometry" />
        </mxCell>
        <mxCell id="cRgJPDMEzFP9TilegyfI-23" value="&lt;span style=&quot;font-weight: normal;&quot;&gt;Elastic Load Balancing&lt;/span&gt;" style="sketch=0;outlineConnect=0;fontColor=#232F3E;gradientColor=none;strokeColor=#ffffff;fillColor=#232F3E;dashed=0;verticalLabelPosition=middle;verticalAlign=bottom;align=center;html=1;whiteSpace=wrap;fontSize=14;fontStyle=1;spacing=3;shape=mxgraph.aws4.productIcon;prIcon=mxgraph.aws4.elastic_load_balancing;" vertex="1" parent="1">
          <mxGeometry x="690" y="271" width="80" height="137" as="geometry" />
        </mxCell>
      </root>
    </mxGraphModel>
  </diagram>
</mxfile>
